<svg xmlns="http://www.w3.org/2000/svg" xmlns:xlink="http://www.w3.org/1999/xlink" viewBox="0 0 360 400"><defs><g id="x"><path stroke="brown" fill="none" d="m-14 -4 l10 0 l0 -10 M-14 4 l10 0 l0 10 M14 -4 l-10 0 l0 -10 M14 4 l-10 0 l0 10"/></g><g id="xr"><path stroke="brown" fill="none" d="m14 -4 l-10 0 l0 -10 M14 4 l-10 0 l0 10"/></g><g id="xl"><path stroke="brown" fill="none" d="m-14 -4 l10 0 l0 -10 M-14 4 l10 0 l0 10"/></g><g id="r"><circle r="19" fill="black"/><text x="-14" y="9" fill="white" font-size="28">车</text></g><g id="n"><circle r="19" fill="black"/><text x="-14" y="9" fill="white" font-size="28">马</text></g><g id="b"><circle r="19" fill="black"/><text x="-14" y="9" fill="white" font-size="28">象</text></g><g id="a"><circle r="19" fill="black"/><text x="-14" y="9" fill="white" font-size="28">士</text></g><g id="k"><circle r="19" fill="black"/><text x="-14" y="9" fill="white" font-size="28">将</text></g><g id="c"><circle r="19" fill="black"/><text x="-14" y="9" fill="white" font-size="28">炮</text></g><g id="p"><circle r="19" fill="black"/><text x="-14" y="9" fill="white" font-size="28">卒</text></g><g id="R"><circle r="19" fill="red"/><text x="-14" y="9" fill="white" font-size="28">车</text></g><g id="N"><circle r="19" fill="red"/><text x="-14" y="9" fill="white" font-size="28">马</text></g><g id="B"><circle r="19" fill="red"/><text x="-14" y="9" fill="white" font-size="28">相</text></g><g id="A"><circle r="19" fill="red"/><text x="-14" y="9" fill="white" font-size="28">仕</text></g><g id="K"><circle r="19" fill="red"/><text x="-14" y="9" fill="white" font-size="28">帅</text></g><g id="C"><circle r="19" fill="red"/><text x="-14" y="9" fill="white" font-size="28">炮</text></g><g id="P"><circle r="19" fill="red"/><text x="-14" y="9" fill="white" font-size="28">兵</text></g></defs><g transform="translate(0,0)" id="qipan"><path stroke="brown" stroke-width="2" fill="none" d="m20 20 l320 0 l0 360 l-320 0 z M20 60 l320 0 m0 40 l-320 0 m0 40 l320 0 m0 40 l-320 0 m0 40 l320 0 m0 40 l-320 0 m0 40 l320 0 m0 40 l-320 0 M60 20 l0 160 m40 0 l0 -160 m40 0 l0 160 m40 0 l0 -160 m40 0 l0 160 m40 0 l0 -160 m40 0 l0 160 M60 220 l0 160 m40 0 l0 -160 m40 0 l0 160 m40 0 l0 -160 m40 0 l0 160 m40 0 l0 -160 m40 0 l0 160"/><path stroke="brown" fill="none" d="M140 20 l80 80 M140 100 l80 -80 M140 300 l80 80 M140 380 l80 -80"/><use xlink:href="#x" transform="translate(60,100)"/><use xlink:href="#x" transform="translate(300,100)"/><use xlink:href="#x" transform="translate(60,300)"/><use xlink:href="#x" transform="translate(300,300)"/><use xlink:href="#x" transform="translate(100,140)"/><use xlink:href="#x" transform="translate(180,140)"/><use xlink:href="#x" transform="translate(260,140)"/><use xlink:href="#x" transform="translate(100,260)"/><use xlink:href="#x" transform="translate(180,260)"/><use xlink:href="#x" transform="translate(260,260)"/><use xlink:href="#xr" transform="translate(20,140)"/><use xlink:href="#xr" transform="translate(20,260)"/><use xlink:href="#xl" transform="translate(340,140)"/><use xlink:href="#xl" transform="translate(340,260)"/><text  transform="translate(128,206)" fill="black" font-size="24" font-family="arial,sans-serif">xqipu.com</text><use xlink:href="#c" transform="translate(140,20)"/><use xlink:href="#k" transform="translate(220,20)"/><use xlink:href="#P" transform="translate(140,60)"/><use xlink:href="#P" transform="translate(180,60)"/><use xlink:href="#b" transform="translate(20,100)"/><use xlink:href="#r" transform="translate(220,100)"/><use xlink:href="#n" transform="translate(100,180)"/><use xlink:href="#b" transform="translate(260,180)"/><use xlink:href="#P" transform="translate(100,220)"/><use xlink:href="#r" transform="translate(220,220)"/><use xlink:href="#P" transform="translate(260,220)"/><use xlink:href="#C" transform="translate(340,220)"/><use xlink:href="#R" transform="translate(300,260)"/><use xlink:href="#p" transform="translate(140,300)"/><use xlink:href="#p" transform="translate(180,340)"/><use xlink:href="#B" transform="translate(100,380)"/><use xlink:href="#K" transform="translate(140,380)"/><use xlink:href="#B" transform="translate(260,380)"/><use xlink:href="#R" transform="translate(340,380)"/></g></svg>